<?xml version="1.0" encoding="UTF-8"?>
<svg version="1.1" xmlns="http://www.w3.org/2000/svg" width="412" height="97">
<path d="M0 0 C135.96 0 271.92 0 412 0 C412 32.01 412 64.02 412 97 C276.04 97 140.08 97 0 97 C0 64.99 0 32.98 0 0 Z " fill="#FDFDFD" transform="translate(0,0)"/>
<path d="M0 0 C1.97781326 1.72362248 3.89970144 3.48080372 5.78125 5.30859375 C6.36132812 4.82648437 6.94140625 4.344375 7.5390625 3.84765625 C13.94152538 -1.32925268 18.96856249 -4.25012405 27.3515625 -3.99609375 C35.11953868 -3.02197455 40.41689148 0.18841801 45.40625 6.11328125 C49.02869755 11.89684808 49.05325761 17.48632686 48.9765625 24.08203125 C48.9737326 25.00577545 48.97090271 25.92951965 48.96798706 26.8812561 C48.95684179 29.81550351 48.93174765 32.74943945 48.90625 35.68359375 C48.89621289 37.67968307 48.88708832 39.67577721 48.87890625 41.671875 C48.85692097 46.55090024 48.82243017 51.42969429 48.78125 56.30859375 C44.16125 56.30859375 39.54125 56.30859375 34.78125 56.30859375 C34.7719043 55.12305908 34.76255859 53.93752441 34.75292969 52.71606445 C34.71299002 48.3081333 34.64722019 43.90089717 34.57373047 39.4934082 C34.5455439 37.5875747 34.52431784 35.6816248 34.51025391 33.77563477 C34.48879217 31.03210969 34.44212635 28.28998062 34.390625 25.546875 C34.38939636 24.69773026 34.38816772 23.84858551 34.38690186 22.97370911 C34.28670383 18.90629868 34.09646581 16.80535231 31.86816406 13.29370117 C28.01772311 9.63109759 24.617976 9.9820097 19.48828125 10.015625 C15.89681825 10.40431147 14.15084176 11.62305642 11.78125 14.30859375 C10.09098863 17.68911649 10.53680041 21.53119517 10.46484375 25.25390625 C10.44406265 26.13891815 10.42328156 27.02393005 10.40187073 27.9357605 C10.33638402 30.76829116 10.27749438 33.600916 10.21875 36.43359375 C10.17556394 38.35157232 10.13194963 40.26954129 10.08789062 42.1875 C9.98070353 46.89443426 9.8794336 51.60146342 9.78125 56.30859375 C5.16125 56.30859375 0.54125 56.30859375 -4.21875 56.30859375 C-4.23333252 55.18888184 -4.24791504 54.06916992 -4.26293945 52.91552734 C-4.32109886 48.74431101 -4.39833023 44.57362456 -4.48120117 40.40283203 C-4.51436773 38.60083646 -4.54242525 36.79873908 -4.56518555 34.99658203 C-4.59888432 32.39962552 -4.65120649 29.80359509 -4.70703125 27.20703125 C-4.71342117 26.40679535 -4.7198111 25.60655945 -4.72639465 24.78207397 C-4.85275371 19.92835624 -5.51716971 16.50060493 -8.21875 12.30859375 C-12.67452347 9.33807811 -16.99317606 9.68121884 -22.21875 10.30859375 C-25.88597895 12.40415315 -27.7458897 14.39633343 -29.21875 18.30859375 C-29.45562056 21.23737312 -29.59103572 24.08020561 -29.6328125 27.01171875 C-29.65217865 27.84950867 -29.6715448 28.68729858 -29.6914978 29.55047607 C-29.75115724 32.21974588 -29.79762413 34.88905914 -29.84375 37.55859375 C-29.88194236 39.37111229 -29.92099482 41.18361293 -29.9609375 42.99609375 C-30.05684752 47.4334479 -30.1409288 51.870887 -30.21875 56.30859375 C-34.50875 56.30859375 -38.79875 56.30859375 -43.21875 56.30859375 C-43.21875 37.16859375 -43.21875 18.02859375 -43.21875 -1.69140625 C-38.92875 -1.69140625 -34.63875 -1.69140625 -30.21875 -1.69140625 C-30.21875 -0.04140625 -30.21875 1.60859375 -30.21875 3.30859375 C-29.62707031 2.88707031 -29.03539062 2.46554688 -28.42578125 2.03125 C-27.63558594 1.48339844 -26.84539062 0.93554688 -26.03125 0.37109375 C-25.25394531 -0.17417969 -24.47664063 -0.71945313 -23.67578125 -1.28125 C-16.62004483 -5.3307267 -6.48733673 -4.94545212 0 0 Z " fill="#070B1C" transform="translate(290.21875,26.69140625)"/>
<path d="M0 0 C6.72243057 4.44623917 10.2553806 9.45229665 13 17 C13 21.95 13 26.9 13 32 C-1.52 32 -16.04 32 -31 32 C-27.60715894 39.70531825 -27.60715894 39.70531825 -21.26953125 43.37109375 C-16.13425839 44.79412117 -11.39137187 45.14890636 -6.50390625 42.80078125 C-4.97384111 41.88374713 -3.47095664 40.91885906 -2.0078125 39.8984375 C0 39 0 39 2.0859375 39.6875 C4.71728979 41.49185586 6.81137628 43.68978608 9 46 C7.00698296 51.07313429 3.42208144 53.23426384 -1.25 55.75 C-9.56339294 58.59488732 -20.76652636 58.61244166 -28.75 54.8125 C-32.36111936 52.63116394 -35.28530195 50.25763766 -38 47 C-38.44085938 46.47535156 -38.88171875 45.95070312 -39.3359375 45.41015625 C-44.76383713 38.49193736 -45.59722846 30.98818315 -45.4375 22.3828125 C-44.3427289 13.91788596 -39.9060818 6.61354356 -33.19140625 1.40234375 C-22.48381036 -5.44975415 -11.20760767 -6.27402622 0 0 Z " fill="#070B1D" transform="translate(394,27)"/>
<path d="M0 0 C7.69530603 4.51824397 11.27453936 11.24202757 13.734375 19.60546875 C13.734375 23.89546875 13.734375 28.18546875 13.734375 32.60546875 C-0.785625 32.60546875 -15.305625 32.60546875 -30.265625 32.60546875 C-27.10272438 39.95543811 -27.10272438 39.95543811 -21.37890625 43.9765625 C-16.09565584 45.5488422 -10.74548259 45.76424543 -5.69921875 43.40625 C-3.33924722 42.02678498 -3.33924722 42.02678498 -1.23828125 40.50390625 C0.734375 39.60546875 0.734375 39.60546875 2.81640625 40.29296875 C5.45087835 42.09578469 7.54462714 44.29406823 9.734375 46.60546875 C7.74135796 51.67860304 4.15645644 53.83973259 -0.515625 56.35546875 C-8.82901794 59.20035607 -20.03215136 59.21791041 -28.015625 55.41796875 C-31.61837604 53.25021177 -34.53055024 50.82320376 -37.265625 47.60546875 C-37.966875 46.84234375 -38.668125 46.07921875 -39.390625 45.29296875 C-44.79148527 37.55173569 -45.17982287 29.83055632 -44.265625 20.60546875 C-42.60004409 13.38795147 -38.91419602 7.40142527 -33.265625 2.60546875 C-22.12394859 -4.2014521 -12.06343603 -5.57855785 0 0 Z " fill="#070B1D" transform="translate(106.265625,26.39453125)"/>
<path d="M0 0 C4.62 0 9.24 0 14 0 C14.01981934 1.18553467 14.03963867 2.37106934 14.06005859 3.5925293 C14.13625789 8.00029367 14.22495323 12.4077341 14.31738281 16.81518555 C14.35561339 18.72104486 14.39047655 20.62697487 14.421875 22.53295898 C14.46765422 25.27613553 14.5256273 28.01882788 14.5859375 30.76171875 C14.59748871 31.61086349 14.60903992 32.46000824 14.62094116 33.33488464 C14.76548056 39.40798942 14.76548056 39.40798942 17 45 C21.62635454 46.54211818 26.17393161 46.64206465 31 46 C34.41311667 43.47429367 35.66637768 42.00086696 37 38 C37.1539263 35.19839498 37.25738045 32.41701575 37.31640625 29.61328125 C37.33718735 28.79627243 37.35796844 27.97926361 37.37937927 27.13749695 C37.44473079 24.52924966 37.50369273 21.92090225 37.5625 19.3125 C37.60569892 17.54360946 37.64931365 15.77472903 37.69335938 14.00585938 C37.80039743 9.67067537 37.90170544 5.33539071 38 1 C42.29 1 46.58 1 51 1 C51.12448527 6.6558447 51.21475374 12.31087539 51.2746582 17.96777344 C51.29965487 19.88816232 51.33366412 21.80845751 51.37719727 23.72851562 C51.86320601 45.73041731 51.86320601 45.73041731 44.21411133 53.90966797 C38.0969163 59.79989834 31.15636536 60.44779243 22.97900391 60.43383789 C17.01118077 60.26817959 13.28031305 59.11368286 9 55 C8.43925781 54.48050781 7.87851563 53.96101563 7.30078125 53.42578125 C1.52911036 47.43051052 -0.34226287 40.20527586 -0.33988953 32.03416443 C-0.32440567 31.2275386 -0.30892181 30.42091278 -0.29296875 29.58984375 C-0.28872391 28.73693253 -0.28447906 27.8840213 -0.28010559 27.00526428 C-0.2634863 24.3156705 -0.22586775 21.62686231 -0.1875 18.9375 C-0.17243143 17.0996203 -0.15874686 15.26172869 -0.14648438 13.42382812 C-0.11363805 8.94892204 -0.06197498 4.4745936 0 0 Z " fill="#070B1D" transform="translate(182,24)"/>
<path d="M0 0 C2.55841046 1.80189124 4.81440508 3.7637456 7 6 C5.27845212 9.76488042 3.00765886 12.15063897 0 15 C-4.71163366 13.16769802 -4.71163366 13.16769802 -6.8203125 11.94140625 C-9.54684651 10.76381719 -11.66485216 10.76861641 -14.625 10.8125 C-15.58664063 10.81894531 -16.54828125 10.82539062 -17.5390625 10.83203125 C-20.00410451 10.8415235 -20.00410451 10.8415235 -22 12 C-21.96906827 14.41585574 -21.96906827 14.41585574 -21 17 C-17.3166809 19.48872912 -13.19963491 20.59153005 -9 21.9375 C-2.37132431 24.10330493 3.52930224 26.59255798 7 33 C7.80962917 39.46793638 7.8749126 45.5216753 4 51 C0.49370016 55.05992613 -2.49722611 57.56991257 -7.92871094 58.23681641 C-18.44262197 58.89483314 -27.33067991 58.64679275 -35.70703125 51.5546875 C-37.125 50.1875 -37.125 50.1875 -39 48 C-38.06725891 46.87105124 -37.12859878 45.74699124 -36.1875 44.625 C-35.66542969 43.99851563 -35.14335937 43.37203125 -34.60546875 42.7265625 C-33 41 -33 41 -30 39 C-28.53515625 40.26953125 -27.0703125 41.5390625 -25.60546875 42.80859375 C-22.39354265 45.19213988 -19.34843382 45.13534525 -15.5 45.125 C-14.5409375 45.12757812 -13.581875 45.13015625 -12.59375 45.1328125 C-9.88428848 45.10992972 -9.88428848 45.10992972 -7 44 C-7 42.02 -7 40.04 -7 38 C-11.99960343 35.6264509 -16.94951215 33.66970238 -22.25 32.0625 C-26.99113506 30.52027563 -29.91773503 29.07654399 -33 25 C-33.598125 24.278125 -34.19625 23.55625 -34.8125 22.8125 C-36.84266487 18.00421478 -36.910813 12.9730311 -35.37890625 7.97265625 C-32.9238331 2.98612989 -28.87745509 0.42370458 -24 -2 C-16.27019836 -4.57660055 -7.32056254 -3.38731114 0 0 Z " fill="#080B1D" transform="translate(165,26)"/>
<path d="M0 0 C2.875 2.125 2.875 2.125 5 4 C3.33248852 7.94139078 0.77289351 10.7892812 -2 14 C-2.639375 13.67 -3.27875 13.34 -3.9375 13 C-8.05392554 11.65586105 -11.7144784 11.25436443 -16 12 C-19.0631608 13.59844773 -21.51445136 15.54262865 -22.64341736 18.93121338 C-23.24539689 22.4237199 -23.24149636 25.94927822 -23.31640625 29.484375 C-23.33718735 30.29996887 -23.35796844 31.11556274 -23.37937927 31.95587158 C-23.44461297 34.55383105 -23.50363768 37.15188913 -23.5625 39.75 C-23.60571014 41.514333 -23.64932522 43.27865613 -23.69335938 45.04296875 C-23.80026745 49.36187884 -23.90160827 53.68088784 -24 58 C-28.62 58 -33.24 58 -38 58 C-38 38.53 -38 19.06 -38 -1 C-33.38 -1 -28.76 -1 -24 -1 C-23.67 0.32 -23.34 1.64 -23 3 C-22.071875 2.360625 -21.14375 1.72125 -20.1875 1.0625 C-13.7585665 -3.09739814 -6.9091144 -3.07071751 0 0 Z " fill="#0B0F20" transform="translate(55,25)"/>
<path d="M0 0 C4.53736683 2.11222249 6.90268876 4.45582564 9 9 C9 9.99 9 10.98 9 12 C-1.23 12 -11.46 12 -22 12 C-20.87748958 6.3874479 -19.81978472 4.89862166 -15.5859375 1.3984375 C-10.61339468 -1.29064155 -5.45339811 -0.89469813 0 0 Z " fill="#F3F3F4" transform="translate(385,36)"/>
<path d="M0 0 C5.08656253 2.4349028 6.5816185 5.07366732 9 10 C9 10.66 9 11.32 9 12 C-1.23 12 -11.46 12 -22 12 C-20.87722009 6.38610043 -19.81655922 4.90278152 -15.58984375 1.39453125 C-10.70662447 -1.23489451 -5.35755295 -0.94666108 0 0 Z " fill="#F4F4F5" transform="translate(98,36)"/>
</svg>
